Run_30002
nRows=4
nColumns=164

# SIMM Motion File Header:
name Run_30002
datacolumns 164
datarows 4
otherdata 1
range 1.49000000 1.52000000
endheader
time	pelvis_tilt	pelvis_list	pelvis_rotation	pelvis_tx	pelvis_ty	pelvis_tz	hip_flexion_r	hip_adduction_r	hip_rotation_r	knee_angle_r	ankle_angle_r	hip_flexion_l	hip_adduction_l	hip_rotation_l	knee_angle_l	ankle_angle_l	lumbar_extension	lumbar_bending	lumbar_rotation	arm_flex_r	arm_add_r	arm_rot_r	elbow_flex_r	pro_sup_r	arm_flex_l	arm_add_l	arm_rot_l	elbow_flex_l	pro_sup_l	subtalar_angle_r	mtp_angle_r	subtalar_angle_l	mtp_angle_l	wrist_flex_r	wrist_dev_r	wrist_flex_l	wrist_dev_l	LASI_tx	LASI_ty	LASI_tz	RASI_tx	RASI_ty	RASI_tz	LPSI_tx	LPSI_ty	LPSI_tz	RPSI_tx	RPSI_ty	RPSI_tz	RTH1_tx	RTH1_ty	RTH1_tz	RTH2_tx	RTH2_ty	RTH2_tz	RTH3_tx	RTH3_ty	RTH3_tz	LTH1_tx	LTH1_ty	LTH1_tz	LTH2_tx	LTH2_ty	LTH2_tz	LTH3_tx	LTH3_ty	LTH3_tz	RTB1_tx	RTB1_ty	RTB1_tz	RTB2_tx	RTB2_ty	RTB2_tz	RTB3_tx	RTB3_ty	RTB3_tz	LTB1_tx	LTB1_ty	LTB1_tz	LTB2_tx	LTB2_ty	LTB2_tz	LTB3_tx	LTB3_ty	LTB3_tz	RCAL_tx	RCAL_ty	RCAL_tz	RTOE_tx	RTOE_ty	RTOE_tz	RMT5_tx	RMT5_ty	RMT5_tz	LCAL_tx	LCAL_ty	LCAL_tz	LTOE_tx	LTOE_ty	LTOE_tz	LMT5_tx	LMT5_ty	LMT5_tz	LACR_tx	LACR_ty	LACR_tz	RACR_tx	RACR_ty	RACR_tz	CLAV_tx	CLAV_ty	CLAV_tz	C7_tx	C7_ty	C7_tz	RUA1_tx	RUA1_ty	RUA1_tz	RUA2_tx	RUA2_ty	RUA2_tz	RUA3_tx	RUA3_ty	RUA3_tz	RLEL_tx	RLEL_ty	RLEL_tz	RMEL_tx	RMEL_ty	RMEL_tz	LUA1_tx	LUA1_ty	LUA1_tz	LUA2_tx	LUA2_ty	LUA2_tz	LUA3_tx	LUA3_ty	LUA3_tz	LLEL_tx	LLEL_ty	LLEL_tz	LMEL_tx	LMEL_ty	LMEL_tz	RFAsuperior_tx	RFAsuperior_ty	RFAsuperior_tz	RFAradius_tx	RFAradius_ty	RFAradius_tz	RFAulna_tx	RFAulna_ty	RFAulna_tz	LFAsuperior_tx	LFAsuperior_ty	LFAsuperior_tz	LFAradius_tx	LFAradius_ty	LFAradius_tz	LFAulna_tx	LFAulna_ty	LFAulna_tz
      1.49000000	     -9.02614799	      0.67345853	     -2.75047109	      0.93043669	      0.98889976	     -0.31175535	    -13.39680577	     -1.88679009	     -7.52188503	    -29.70400014	    -22.20891250	     34.16219419	      3.62810242	     -1.96378905	     -9.23180418	      2.99047997	     -1.82312894	     -1.69465247	     17.70545107	    -14.00229464	    -32.61885226	     -7.03560027	    120.64373090	     83.89926333	    -40.86424467	    -21.00681870	     -9.54389607	    116.74218235	    113.52338269	      0.00000000	      0.00000000	      0.00000000	      0.00000000	      0.00000000	      0.00000000	      0.00000000	      0.00000000	      0.94058055	      1.00671848	     -0.43045368	      0.92680296	      1.00970436	     -0.19287802	      0.77675026	      1.06476250	     -0.37100778	      0.77179519	      1.06790379	     -0.27093047	      0.78665227	      0.78669161	     -0.14067201	      0.81158583	      0.68773459	     -0.15349697	      0.71654186	      0.62692576	     -0.16729404	      0.94564743	      0.82469164	     -0.48492032	      1.02728877	      0.73992409	     -0.46288322	      1.00543683	      0.62016280	     -0.43985247	      0.61133646	      0.42792658	     -0.22428097	      0.52616478	      0.40872450	     -0.17938675	      0.46125776	      0.31378312	     -0.23781905	      1.11128554	      0.45116455	     -0.37407257	      1.07600848	      0.35843419	     -0.42666530	      1.14017944	      0.26577957	     -0.35472102	      0.34469493	      0.33960516	     -0.26580365	      0.39415958	      0.12403944	     -0.27801363	      0.33135658	      0.15281614	     -0.18865428	      1.08102012	      0.11242350	     -0.33331297	      1.28929105	      0.17847562	     -0.32330925	      1.26701475	      0.11898726	     -0.41359295	      0.90206009	      1.49989071	     -0.46914747	      0.95290485	      1.49438944	     -0.19064860	      1.01172596	      1.42206531	     -0.33025622	      0.87638778	      1.52295026	     -0.31623630	      0.94304052	      1.40793986	     -0.07791721	      0.88053518	      1.34690405	     -0.05816149	      0.93902097	      1.30243349	     -0.00677384	      0.93111963	      1.23584728	      0.03555910	      0.88666671	      1.19474185	     -0.01576595	      0.78918690	      1.44502939	     -0.53766784	      0.74504902	      1.40178601	     -0.47527106	      0.72461678	      1.37192893	     -0.55951853	      0.65825215	      1.30764029	     -0.57347741	      0.65064632	      1.28665882	     -0.50220840	      1.03543733	      1.23842395	     -0.01778233	      1.10765378	      1.24215625	     -0.13291255	      1.11731435	      1.17824224	     -0.10463502	      0.76701043	      1.26603331	     -0.58291487	      0.87677791	      1.18833198	     -0.52886940	      0.83730381	      1.15450978	     -0.57495852
      1.50000000	     -8.82318960	      0.33841606	     -3.36668272	      0.93084068	      0.98594611	     -0.31208873	    -12.15995409	     -1.96431488	     -5.80933331	    -35.08831085	    -20.03011564	     33.27631787	      3.18187056	     -2.64383206	     -9.14088243	      3.86679100	     -1.89582011	     -1.28620914	     17.69956068	    -14.53984346	    -32.82147373	     -7.12171480	    120.61236935	     84.18692330	    -40.76863362	    -20.42972923	     -9.97209425	    117.32954986	    113.67577303	      0.00000000	      0.00000000	      0.00000000	      0.00000000	      0.00000000	      0.00000000	      0.00000000	      0.00000000	      0.94173596	      1.00324589	     -0.43022360	      0.92695136	      1.00842657	     -0.19274787	      0.77800265	      1.06018843	     -0.37351795	      0.77195543	      1.06441986	     -0.27310456	      0.79070753	      0.78246387	     -0.14146644	      0.81764612	      0.68393450	     -0.15335190	      0.72428182	      0.62087464	     -0.16669469	      0.94471811	      0.81837830	     -0.48652538	      1.02627678	      0.73200714	     -0.46383825	      1.00360638	      0.61463243	     -0.43969822	      0.61427646	      0.42600291	     -0.22365106	      0.52797477	      0.41250348	     -0.17892059	      0.45682178	      0.32254008	     -0.23781101	      1.10592145	      0.44538678	     -0.37138186	      1.07109532	      0.35215749	     -0.42532116	      1.13341346	      0.25897939	     -0.35273504	      0.34003341	      0.35529470	     -0.26634523	      0.37982299	      0.13755970	     -0.27460291	      0.32064977	      0.17117255	     -0.18454841	      1.07326890	      0.10533915	     -0.33169672	      1.28210511	      0.17115687	     -0.32288259	      1.25824605	      0.11318383	     -0.41425370	      0.90291002	      1.49676316	     -0.47094099	      0.95116642	      1.49171420	     -0.19140249	      1.01126992	      1.41936373	     -0.33065920	      0.87571746	      1.52021240	     -0.31775242	      0.93946843	      1.40525012	     -0.07832824	      0.87585457	      1.34448515	     -0.05951420	      0.93389024	      1.30092018	     -0.00661994	      0.92567422	      1.23461527	      0.03579703	      0.88156068	      1.19347177	     -0.01575732	      0.79029704	      1.44100619	     -0.54002014	      0.74631185	      1.39767289	     -0.47689111	      0.72595609	      1.36794125	     -0.56096218	      0.66024294	      1.30257333	     -0.57494356	      0.65310061	      1.28138063	     -0.50386012	      1.03068418	      1.23586949	     -0.01638471	      1.10371686	      1.23851203	     -0.13109119	      1.11296763	      1.17482905	     -0.10219893	      0.76964749	      1.26301368	     -0.58399935	      0.88049182	      1.18725773	     -0.52985974	      0.84195522	      1.15274336	     -0.57605051
      1.51000000	     -8.48239711	      0.14623046	     -3.86116249	      0.93128336	      0.98230816	     -0.31235321	    -10.81969344	     -2.09334549	     -4.34366614	    -40.83858085	    -17.82447875	     32.38661733	      2.96047437	     -3.32803509	    -10.22460775	      4.49838947	     -2.08357112	     -1.09103603	     17.45266905	    -15.08774324	    -32.84427083	     -7.10691723	    120.27975324	     84.56385666	    -40.47271341	    -20.02019819	    -10.35080462	    117.81425421	    113.58119459	      0.00000000	      0.00000000	      0.00000000	      0.00000000	      0.00000000	      0.00000000	      0.00000000	      0.00000000	      0.94274950	      0.99920146	     -0.43051946	      0.92742917	      1.00612443	     -0.19242446	      0.77931375	      1.05449993	     -0.37580635	      0.77224039	      1.05932106	     -0.27523443	      0.79571174	      0.77710035	     -0.14168899	      0.82469310	      0.67902900	     -0.15254527	      0.73320264	      0.61334311	     -0.16581420	      0.94451894	      0.81225443	     -0.48714558	      1.02593219	      0.72579998	     -0.46450633	      1.00262902	      0.60888541	     -0.43876690	      0.61941231	      0.42323288	     -0.22266805	      0.53223069	      0.41558326	     -0.17847540	      0.45497105	      0.33094456	     -0.23706226	      1.09882264	      0.43804706	     -0.36814292	      1.06340371	      0.34449303	     -0.42387147	      1.12211518	      0.24987130	     -0.35054080	      0.33861161	      0.37134019	     -0.26700251	      0.36804756	      0.15187354	     -0.27176125	      0.31380095	      0.19006163	     -0.18046243	      1.05904860	      0.09926613	     -0.32930852	      1.26931980	      0.15892632	     -0.32194577	      1.24234140	      0.10295875	     -0.41480813	      0.90366147	      1.49257878	     -0.47285417	      0.94883089	      1.48799522	     -0.19240901	      1.01052560	      1.41571014	     -0.33088178	      0.87488357	      1.51667023	     -0.31954727	      0.93508353	      1.40150912	     -0.07868227	      0.87023589	      1.34123388	     -0.06110430	      0.92766289	      1.29828111	     -0.00655082	      0.91895824	      1.23237656	      0.03591140	      0.87527394	      1.19132505	     -0.01597811	      0.79165005	      1.43548703	     -0.54299692	      0.74760897	      1.39204677	     -0.47952201	      0.72787424	      1.36209838	     -0.56329963	      0.66295981	      1.29571250	     -0.57737924	      0.65602711	      1.27428439	     -0.50645558	      1.02475519	      1.23172775	     -0.01483857	      1.09905533	      1.23283873	     -0.12892024	      1.10747485	      1.16944948	     -0.09925535	      0.77306127	      1.25831470	     -0.58571801	      0.88512425	      1.18481648	     -0.53123324	      0.84752690	      1.14958490	     -0.57749586
      1.52000000	     -8.00830663	      0.10678246	     -4.15582129	      0.93194603	      0.97789376	     -0.31251541	     -9.45900017	     -2.31659317	     -3.31259589	    -46.76924552	    -15.95442969	     31.34065954	      3.01154268	     -4.02324437	    -11.87001983	      4.10160217	     -2.35106306	     -1.13434674	     16.92410970	    -15.70677905	    -32.67568483	     -7.02903312	    119.68503577	     85.06851726	    -40.00255822	    -19.86177155	    -10.68061977	    118.20827683	    113.31357925	      0.00000000	      0.00000000	      0.00000000	      0.00000000	      0.00000000	      0.00000000	      0.00000000	      0.00000000	      0.94370652	      0.99446572	     -0.43120686	      0.92861563	      1.00253456	     -0.19188692	      0.78043597	      1.04787317	     -0.37760011	      0.77265647	      1.05281710	     -0.27704040	      0.80158795	      0.77054816	     -0.14126304	      0.83270112	      0.67297549	     -0.15096114	      0.74332931	      0.60469916	     -0.16439206	      0.94514716	      0.80616635	     -0.48654038	      1.02562090	      0.72078031	     -0.46433379	      1.00087913	      0.60219589	     -0.43722685	      0.62664139	      0.41976195	     -0.22119701	      0.53882421	      0.41797220	     -0.17785343	      0.45586647	      0.33882465	     -0.23546027	      1.09013717	      0.42827400	     -0.36518835	      1.05284849	      0.33542838	     -0.42204220	      1.10786333	      0.23898221	     -0.34815482	      0.34125836	      0.38720450	     -0.26771281	      0.35887561	      0.16646416	     -0.26916159	      0.31017778	      0.20905666	     -0.17667829	      1.04070622	      0.09574892	     -0.32575918	      1.25267096	      0.14171027	     -0.32000349	      1.22143706	      0.08870464	     -0.41466709	      0.90415408	      1.48732530	     -0.47466765	      0.94599707	      1.48322469	     -0.19360814	      1.00954818	      1.41111606	     -0.33088980	      0.87385470	      1.51211923	     -0.32157158	      0.92996265	      1.39698534	     -0.07905487	      0.86404031	      1.33727712	     -0.06292831	      0.92057753	      1.29464644	     -0.00656149	      0.91105034	      1.22918596	      0.03594816	      0.86786849	      1.18835071	     -0.01639035	      0.79329596	      1.42847238	     -0.54630467	      0.74880225	      1.38495589	     -0.48305432	      0.73041351	      1.35437299	     -0.56643794	      0.66642421	      1.28712172	     -0.58081849	      0.65937523	      1.26540714	     -0.51002482	      1.01764240	      1.22617673	     -0.01312566	      1.09365346	      1.22524497	     -0.12637915	      1.10082432	      1.16224715	     -0.09576553	      0.77727189	      1.25196426	     -0.58818850	      0.89052396	      1.18099191	     -0.53292223	      0.85398039	      1.14503142	     -0.57934704
